<?xml version="1.0" standalone="no"?>
<!DOCTYPE svg PUBLIC "-//W3C//DTD SVG 20010904//EN"
 "http://www.w3.org/TR/2001/REC-SVG-20010904/DTD/svg10.dtd">
<svg version="1.0" xmlns="http://www.w3.org/2000/svg"
 width="260.000000pt" height="260.000000pt" viewBox="0 0 260.000000 260.000000"
 preserveAspectRatio="xMidYMid meet">
<metadata>
Created by potrace 1.14, written by Peter Selinger 2001-2017
</metadata>
<g transform="translate(0.000000,260.000000) scale(0.100000,-0.100000)"
fill="#000000" stroke="none">
<path d="M1370 2480 l-195 -5 -65 -32 c-177 -88 -255 -255 -209 -445 24 -103
128 -219 228 -254 25 -9 55 -19 65 -23 11 -4 -75 -7 -190 -7 -115 1 -234 -2
-264 -7 -213 -30 -365 -251 -316 -460 32 -133 132 -243 259 -282 50 -16 48
-17 -123 -20 -220 -4 -285 -26 -388 -132 -123 -128 -147 -327 -56 -486 50 -89
151 -166 251 -192 76 -20 78 -19 43 12 -36 34 -44 76 -24 119 30 62 23 62 614
60 362 -1 552 2 586 10 99 21 169 76 214 169 21 41 25 65 25 135 0 75 -3 91
-29 138 -36 65 -82 107 -156 141 l-55 25 -390 2 c-214 1 -400 2 -413 3 -65 3
-95 103 -48 158 l24 28 549 5 548 5 49 24 c103 51 161 144 161 256 -1 120 -61
211 -172 262 -57 26 -57 26 -354 27 l-298 1 -30 29 c-33 32 -39 67 -20 110 24
53 33 53 569 52 272 -1 515 2 540 6 65 12 108 35 159 87 150 151 77 416 -131
471 -41 12 -655 18 -958 10z"/>
</g>
</svg>
