<svg width="683" height="683" viewBox="0 0 683 683" fill="none" xmlns="http://www.w3.org/2000/svg">
<g clip-path="url(#clip0_8_22)">
<path d="M197.467 1.46666C186.667 4.79999 177.467 12.9333 172.4 23.7333C169.733 29.4667 168.933 33.7333 168.267 44.8L167.6 58.6667H136.133C111.867 58.6667 102.667 59.2 96.6666 60.8C72.8 66.9333 54.5333 84.5333 47.8666 107.6C45.4666 116.267 45.3333 122.133 45.3333 237.067V357.6L49.2 361.467C56 368.267 67.4666 365.867 70.5333 357.067C71.4666 354.267 72 326.933 72 274.533V196H313.467C488.667 196 555.6 195.6 557.733 194.533C567.733 189.333 567.733 176 557.733 170.8C555.6 169.733 488.667 169.333 313.467 169.333H72V144C72 122 72.4 117.867 74.6666 111.6C78.2666 101.867 85.2 94.2667 94.4 89.7333L102 86L135.067 85.6L168 85.2V93.6C168.133 112.533 173.6 125.867 184.8 133.733C193.2 139.6 197.867 141.067 208.667 141.2C220.133 141.333 229.2 137.6 237.2 129.333C244.8 121.467 248 112.133 248 97.3333V85.3333H360H472V93.6C472.133 112.533 477.733 125.867 488.8 133.733C497.2 139.6 501.867 141.067 512.667 141.2C524.133 141.333 533.2 137.6 541.2 129.333C548.8 121.467 552 112.133 552 97.2V85.2L589.067 85.6C623.6 86 626.4 86.1333 632.133 88.8C640.133 92.5333 648.8 101.2 652.533 109.2L655.333 115.333L655.733 376L656 636.667L653.067 642.667C644.533 659.6 620.933 660.267 611.467 644C609.067 639.867 608.533 636.4 608 615.733L607.333 592L603.6 588.4L600 584.667L520.933 584.267C477.6 584 440 584.267 437.467 584.667C425.333 586.933 422.533 603.067 433.333 608.667C436.667 610.4 447.6 610.667 509.333 610.667H581.333V624.267C581.333 636.4 582.933 646.133 586 653.6C586.933 655.867 573.6 656 316.533 656C56.9333 656 45.7333 655.867 40.6666 653.467C30 648.533 26.6666 641.467 26.6666 623.333V610.667H178H329.333L333.6 606.8C337.333 603.467 338 602 337.867 597.333C337.733 593.2 336.8 590.8 334.133 588.133L330.667 584.667L261.733 584C200.267 583.467 193.2 583.067 195.333 581.333C200.8 576.933 214 558.8 218.267 550C227.2 531.333 228.667 524.4 228.533 500.667C228.533 481.2 228.267 478.4 224.933 468.667C210.133 424.8 172.533 395.467 127.333 392.4C69.3333 388.667 17.7333 432.4 12.2666 490.267C9.33329 520.933 18.5333 549.867 38.8 573.333L47.8666 583.867L28 584.267C8.26663 584.667 7.99996 584.667 4.39996 588.4L0.666626 592V617.067C0.666626 637.467 1.06663 643.2 3.06663 648.667C6.26663 657.867 14 667.733 22.6666 673.6C36.9333 683.333 13.0666 682.667 341.333 682.667C669.6 682.667 645.733 683.333 660 673.6C668.267 668 676.267 658.133 679.6 649.333C681.867 643.733 682 627.867 682.4 381.333C682.533 200.667 682.267 117.2 681.333 112.533C677.467 93.8667 663.2 75.0667 646.933 66.8C632.267 59.3333 627.067 58.6667 587.867 58.6667H552.267L551.733 43.6C551.467 31.0667 550.8 27.7333 548.267 22.6667C540.667 8.13332 528.533 0.799989 512 0.666656C500.533 0.666656 492.667 3.86666 484.4 11.8667C476.4 19.8667 473.2 28.8 472.267 44.8L471.6 58.6667H359.867H248.267L247.733 43.6C247.333 26.8 245.2 20.8 236.4 11.7333C227.6 2.66666 209.333 -2.13334 197.467 1.46666ZM213.733 28.1333C221.2 32 221.333 32.4 221.333 70.9333V106.4L217.867 110.533C211.067 118.667 197.6 114.667 195.467 103.867C195.067 101.467 194.667 86.1333 194.667 69.4667C194.667 43.4667 194.933 38.6667 197.067 34.6667C200.533 27.6 207.467 24.9333 213.733 28.1333ZM517.733 28.1333C525.2 32 525.333 32.4 525.333 70.9333V106.4L521.867 110.533C515.067 118.667 501.6 114.667 499.467 103.867C499.067 101.467 498.667 86.1333 498.667 69.4667C498.667 43.4667 498.933 38.6667 501.067 34.6667C504.533 27.6 511.467 24.9333 517.733 28.1333ZM138 420.667C167.733 426.933 192.8 451.2 200.533 480.933C203.333 491.333 203.333 511.333 200.533 521.733C187.467 572.133 130.933 598.4 84.6666 575.467C55.7333 561.067 38.5333 533.333 38.5333 501.333C38.5333 448.667 86.4 409.867 138 420.667Z" fill="#E77975"/>
<path d="M610 170.533C602 173.867 599.467 185.2 605.333 191.333C613.467 200 628 194.4 628 182.667C628 173.333 618.667 167.067 610 170.533Z" fill="#E77975"/>
<path d="M164.267 268.8C154.533 271.333 146.4 276.4 139.467 284.133C130.933 293.6 127.467 303.2 127.467 317.333C127.467 331.733 130.933 341.2 140 351.067C159.6 372.533 192.133 373.2 212.667 352.667C240.267 325.067 227.6 278.533 189.6 268.667C180.4 266.267 173.467 266.267 164.267 268.8ZM187.733 296.133C199.333 301.867 204.267 315.733 198.667 327.333C192.8 339.6 178.533 344.533 166.667 338.4C149.067 329.333 149.067 305.2 166.667 296.267C174 292.533 180.133 292.533 187.733 296.133Z" fill="#E77975"/>
<path d="M290.267 268C243.733 279.733 237.6 342.533 281.067 363.067C288.933 366.8 291.333 367.333 301.333 367.2C309.733 367.2 314.667 366.4 320.4 364.133C331.2 359.867 342.533 349.067 347.467 338.4C350.933 330.933 351.333 328.533 351.333 317.333C351.333 306.133 350.933 303.733 347.467 296.267C342.4 285.467 331.067 274.667 320.4 270.667C311.6 267.333 297.733 266.133 290.267 268ZM311.467 295.867C314.533 297.2 318.667 300.667 320.8 303.467C324.133 307.867 324.667 309.6 324.667 317.333C324.667 325.067 324.133 326.8 320.8 331.2C313.6 340.667 301.6 343.6 291.333 338.667C273.733 330.133 273.6 304.8 291.2 296C298 292.667 304.4 292.667 311.467 295.867Z" fill="#E77975"/>
<path d="M414 268.4C396.667 272.933 382.933 286 377.867 302.533C374 315.333 376.133 332.667 383.067 343.467C400.533 371.333 438.667 375.733 461.6 352.8C486.267 328.267 478.933 286.533 447.333 271.867C437.6 267.333 423.867 265.867 414 268.4ZM434.267 294.8C443.067 298.133 449.6 307.6 449.6 317.333C449.6 324.8 447.067 330.267 440.8 335.733C432.4 343.067 420.267 343.067 411.467 335.733C399.733 326 399.6 308.4 411.2 299.2C418.4 293.467 426.667 291.867 434.267 294.8Z" fill="#E77975"/>
<path d="M537.6 268.8C527.867 271.333 519.733 276.4 512.8 284.133C504.267 293.6 500.8 303.2 500.8 317.333C500.8 331.733 504.267 341.2 513.333 351.067C532.933 372.533 565.467 373.2 586 352.667C613.6 325.067 600.933 278.533 562.933 268.667C553.733 266.267 546.8 266.267 537.6 268.8ZM561.067 296.133C572.667 301.867 577.6 315.733 572 327.333C566.133 339.6 551.867 344.533 540 338.4C522.4 329.333 522.4 305.2 540 296.267C547.333 292.533 553.467 292.533 561.067 296.133Z" fill="#E77975"/>
<path d="M290.267 406.667C243.733 418.4 237.6 481.2 281.067 501.733C288.933 505.467 291.333 506 301.333 505.867C309.733 505.867 314.667 505.067 320.4 502.8C331.2 498.533 342.533 487.733 347.467 477.067C350.933 469.6 351.333 467.2 351.333 456C351.333 444.8 350.933 442.4 347.467 434.933C342.4 424.133 331.067 413.333 320.4 409.333C311.6 406 297.733 404.8 290.267 406.667ZM311.467 434.533C314.533 435.867 318.667 439.333 320.8 442.133C324.133 446.533 324.667 448.267 324.667 456C324.667 463.733 324.133 465.467 320.8 469.867C313.6 479.333 301.6 482.267 291.333 477.333C273.733 468.8 273.6 443.467 291.2 434.667C298 431.333 304.4 431.333 311.467 434.533Z" fill="#E77975"/>
<path d="M414 407.067C396.667 411.6 382.933 424.667 377.867 441.2C374 454 376.133 471.333 383.067 482.133C400.533 510 438.667 514.4 461.6 491.467C486.267 466.933 478.933 425.2 447.333 410.533C437.6 406 423.867 404.533 414 407.067ZM434.267 433.467C443.067 436.8 449.6 446.267 449.6 456C449.6 463.467 447.067 468.933 440.8 474.4C432.4 481.733 420.267 481.733 411.467 474.4C399.733 464.667 399.6 447.067 411.2 437.867C418.4 432.133 426.667 430.533 434.267 433.467Z" fill="#E77975"/>
<path d="M537.6 407.467C527.867 410 519.733 415.067 512.8 422.8C504.267 432.267 500.8 441.867 500.8 456C500.8 470.4 504.267 479.867 513.333 489.733C532.933 511.2 565.467 511.867 586 491.333C613.6 463.733 600.933 417.2 562.933 407.333C553.733 404.933 546.8 404.933 537.6 407.467ZM561.067 434.8C572.667 440.533 577.6 454.4 572 466C566.133 478.267 551.867 483.2 540 477.067C522.4 468 522.4 443.867 540 434.933C547.333 431.2 553.467 431.2 561.067 434.8Z" fill="#E77975"/>
<path d="M384 585.467C371.6 590.4 374.133 608.4 387.333 610.267C396.667 611.467 403.6 603.067 401.067 593.733C399.2 586.8 390.8 582.8 384 585.467Z" fill="#E77975"/>
<rect x="115" y="456" width="14" height="92" rx="7" fill="#E77975"/>
<rect x="168" y="495" width="14" height="92" rx="7" transform="rotate(90 168 495)" fill="#E77975"/>
</g>
<defs>
<clipPath id="clip0_8_22">
<rect width="682.667" height="682.667" fill="white"/>
</clipPath>
</defs>
</svg>
