<svg width="532" height="120" viewBox="0 0 532 120" fill="none" xmlns="http://www.w3.org/2000/svg">
<path d="M58.8546 5.45455C48.9273 5.45455 40.9091 13.3753 40.9091 23.1818C40.9091 32.913 48.9273 40.8336 58.7781 40.9091C56.3345 40.8336 54.4255 38.8724 54.4255 36.4584C54.4255 34.0445 56.4109 32.0078 58.931 32.0078C69.6218 32.0078 93.371 32.0078 103.833 32.0078C111.24 32.0078 117.273 26.0484 117.273 18.7312C117.273 11.4139 111.24 5.45454 103.833 5.45454L58.8546 5.45455Z" fill="#B91C1C"/>
<path d="M37.0364 40.9091C27.1091 40.9091 19.0909 48.8298 19.0909 58.6364C19.0909 68.3676 27.1091 76.2881 36.9599 76.3636C34.5163 76.2881 32.6073 74.3269 32.6073 71.9129C32.6073 69.499 34.5928 67.4623 37.1128 67.4623C47.8036 67.4623 71.5528 67.4623 82.0146 67.4623C89.4218 67.4623 95.4546 61.5029 95.4546 54.1858C95.4546 46.8685 89.4218 40.9091 82.0146 40.9091L37.0364 40.9091Z" fill="#B91C1C" fill-opacity="0.9"/>
<path d="M21.9545 76.3636C11.3182 76.3637 2.72726 84.8937 2.72726 95.4546C2.72726 105.934 11.3182 114.464 21.8727 114.545C19.2545 114.464 17.2091 112.352 17.2091 109.752C17.2091 107.153 19.3364 104.959 22.0364 104.959C33.4908 104.959 58.9364 104.959 70.1455 104.959C78.0818 104.959 84.5454 98.5416 84.5454 90.6616C84.5454 82.7814 78.0818 76.3636 70.1455 76.3636L21.9545 76.3636Z" fill="#B91C1C" fill-opacity="0.8"/>
<path d="M148.045 83V36.4545H179.409V44.5682H157.886V55.6591H177.795V63.7727H157.886V74.8864H179.5V83H148.045ZM192.774 48.0909L199.183 60.2955L205.751 48.0909H215.683L205.569 65.5455L215.956 83H206.069L199.183 70.9318L192.41 83H182.41L192.774 65.5455L182.774 48.0909H192.774ZM228.832 83.6591C226.605 83.6591 224.62 83.2727 222.878 82.5C221.135 81.7121 219.756 80.553 218.741 79.0227C217.741 77.4773 217.241 75.553 217.241 73.25C217.241 71.3106 217.597 69.6818 218.309 68.3636C219.022 67.0455 219.991 65.9848 221.219 65.1818C222.446 64.3788 223.84 63.7727 225.4 63.3636C226.976 62.9545 228.628 62.6667 230.355 62.5C232.385 62.2879 234.022 62.0909 235.264 61.9091C236.506 61.7121 237.408 61.4242 237.969 61.0455C238.529 60.6667 238.809 60.1061 238.809 59.3636V59.2273C238.809 57.7879 238.355 56.6742 237.446 55.8864C236.552 55.0985 235.279 54.7045 233.628 54.7045C231.885 54.7045 230.499 55.0909 229.469 55.8636C228.438 56.6212 227.756 57.5758 227.423 58.7273L218.469 58C218.923 55.8788 219.817 54.0455 221.15 52.5C222.484 50.9394 224.203 49.7424 226.309 48.9091C228.431 48.0606 230.885 47.6364 233.673 47.6364C235.612 47.6364 237.469 47.8636 239.241 48.3182C241.029 48.7727 242.612 49.4773 243.991 50.4318C245.385 51.3864 246.484 52.6136 247.287 54.1136C248.09 55.5985 248.491 57.3788 248.491 59.4545V83H239.309V78.1591H239.037C238.476 79.25 237.726 80.2121 236.787 81.0455C235.847 81.8636 234.719 82.5076 233.4 82.9773C232.082 83.4318 230.559 83.6591 228.832 83.6591ZM231.605 76.9773C233.029 76.9773 234.287 76.697 235.378 76.1364C236.469 75.5606 237.325 74.7879 237.946 73.8182C238.567 72.8485 238.878 71.75 238.878 70.5227V66.8182C238.575 67.0152 238.158 67.197 237.628 67.3636C237.112 67.5152 236.529 67.6591 235.878 67.7955C235.226 67.9167 234.575 68.0303 233.923 68.1364C233.272 68.2273 232.681 68.3106 232.15 68.3864C231.014 68.553 230.022 68.8182 229.173 69.1818C228.325 69.5455 227.666 70.0379 227.196 70.6591C226.726 71.2652 226.491 72.0227 226.491 72.9318C226.491 74.25 226.969 75.2576 227.923 75.9545C228.893 76.6364 230.12 76.9773 231.605 76.9773ZM253.635 83V48.0909H262.862V54.25H263.271C263.998 52.2045 265.21 50.5909 266.907 49.4091C268.604 48.2273 270.635 47.6364 272.998 47.6364C275.392 47.6364 277.43 48.2348 279.112 49.4318C280.794 50.6136 281.915 52.2197 282.476 54.25H282.839C283.551 52.25 284.839 50.6515 286.703 49.4545C288.582 48.2424 290.801 47.6364 293.362 47.6364C296.619 47.6364 299.263 48.6742 301.294 50.75C303.339 52.8106 304.362 55.7348 304.362 59.5227V83H294.703V61.4318C294.703 59.4924 294.188 58.0379 293.157 57.0682C292.127 56.0985 290.839 55.6136 289.294 55.6136C287.536 55.6136 286.165 56.1742 285.18 57.2955C284.195 58.4015 283.703 59.8636 283.703 61.6818V83H274.316V61.2273C274.316 59.5152 273.824 58.1515 272.839 57.1364C271.869 56.1212 270.589 55.6136 268.998 55.6136C267.923 55.6136 266.953 55.8864 266.089 56.4318C265.241 56.9621 264.566 57.7121 264.066 58.6818C263.566 59.6364 263.316 60.7576 263.316 62.0455V83H253.635Z" fill="#CA3A31"/>
<path d="M309.823 83V36.4545H328.187C331.717 36.4545 334.725 37.1288 337.21 38.4773C339.695 39.8106 341.589 41.6667 342.892 44.0455C344.21 46.4091 344.869 49.1364 344.869 52.2273C344.869 55.3182 344.202 58.0455 342.869 60.4091C341.536 62.7727 339.604 64.6136 337.073 65.9318C334.558 67.25 331.513 67.9091 327.937 67.9091H316.233V60.0227H326.346C328.24 60.0227 329.801 59.697 331.028 59.0455C332.27 58.3788 333.195 57.4621 333.801 56.2955C334.422 55.1136 334.733 53.7576 334.733 52.2273C334.733 50.6818 334.422 49.3333 333.801 48.1818C333.195 47.0151 332.27 46.1136 331.028 45.4773C329.786 44.8258 328.21 44.5 326.301 44.5H319.664V83H309.823ZM358.393 36.4545V83H348.711V36.4545H358.393ZM373.735 83.6591C371.508 83.6591 369.523 83.2727 367.781 82.5C366.038 81.7121 364.659 80.553 363.644 79.0227C362.644 77.4773 362.144 75.553 362.144 73.25C362.144 71.3106 362.5 69.6818 363.212 68.3636C363.925 67.0455 364.894 65.9848 366.122 65.1818C367.349 64.3788 368.743 63.7727 370.303 63.3636C371.879 62.9545 373.531 62.6667 375.258 62.5C377.288 62.2879 378.925 62.0909 380.167 61.9091C381.409 61.7121 382.311 61.4242 382.872 61.0455C383.432 60.6667 383.712 60.1061 383.712 59.3636V59.2273C383.712 57.7879 383.258 56.6742 382.349 55.8864C381.455 55.0985 380.182 54.7045 378.531 54.7045C376.788 54.7045 375.402 55.0909 374.372 55.8636C373.341 56.6212 372.659 57.5758 372.326 58.7273L363.372 58C363.826 55.8788 364.72 54.0455 366.053 52.5C367.387 50.9394 369.106 49.7424 371.212 48.9091C373.334 48.0606 375.788 47.6364 378.576 47.6364C380.515 47.6364 382.372 47.8636 384.144 48.3182C385.932 48.7727 387.515 49.4773 388.894 50.4318C390.288 51.3864 391.387 52.6136 392.19 54.1136C392.993 55.5985 393.394 57.3788 393.394 59.4545V83H384.212V78.1591H383.94C383.379 79.25 382.629 80.2121 381.69 81.0455C380.75 81.8636 379.622 82.5076 378.303 82.9773C376.985 83.4318 375.462 83.6591 373.735 83.6591ZM376.508 76.9773C377.932 76.9773 379.19 76.697 380.281 76.1364C381.372 75.5606 382.228 74.7879 382.849 73.8182C383.47 72.8485 383.781 71.75 383.781 70.5227V66.8182C383.478 67.0152 383.061 67.197 382.531 67.3636C382.015 67.5152 381.432 67.6591 380.781 67.7955C380.129 67.9167 379.478 68.0303 378.826 68.1364C378.175 68.2273 377.584 68.3106 377.053 68.3864C375.917 68.553 374.925 68.8182 374.076 69.1818C373.228 69.5455 372.569 70.0379 372.099 70.6591C371.629 71.2652 371.394 72.0227 371.394 72.9318C371.394 74.25 371.872 75.2576 372.826 75.9545C373.796 76.6364 375.023 76.9773 376.508 76.9773ZM408.219 62.8182V83H398.538V48.0909H407.765V54.25H408.174C408.947 52.2197 410.242 50.6136 412.06 49.4318C413.879 48.2348 416.083 47.6364 418.674 47.6364C421.098 47.6364 423.212 48.1667 425.015 49.2273C426.818 50.2879 428.219 51.803 429.219 53.7727C430.219 55.7273 430.719 58.0606 430.719 60.7727V83H421.038V62.5C421.053 60.3636 420.507 58.697 419.401 57.5C418.295 56.2879 416.772 55.6818 414.833 55.6818C413.53 55.6818 412.379 55.9621 411.379 56.5227C410.394 57.0833 409.621 57.9015 409.06 58.9773C408.515 60.0379 408.235 61.3182 408.219 62.8182ZM445.664 62.8182V83H435.982V48.0909H445.209V54.25H445.618C446.391 52.2197 447.687 50.6136 449.505 49.4318C451.323 48.2348 453.528 47.6364 456.118 47.6364C458.543 47.6364 460.656 48.1667 462.459 49.2273C464.262 50.2879 465.664 51.803 466.664 53.7727C467.664 55.7273 468.164 58.0606 468.164 60.7727V83H458.482V62.5C458.497 60.3636 457.952 58.697 456.846 57.5C455.74 56.2879 454.217 55.6818 452.278 55.6818C450.975 55.6818 449.823 55.9621 448.823 56.5227C447.838 57.0833 447.065 57.9015 446.505 58.9773C445.959 60.0379 445.679 61.3182 445.664 62.8182ZM489.336 83.6818C485.745 83.6818 482.654 82.9545 480.063 81.5C477.487 80.0303 475.502 77.9545 474.108 75.2727C472.715 72.5758 472.018 69.3864 472.018 65.7045C472.018 62.1136 472.715 58.9621 474.108 56.25C475.502 53.5379 477.465 51.4242 479.995 49.9091C482.54 48.3939 485.525 47.6364 488.949 47.6364C491.252 47.6364 493.396 48.0076 495.381 48.75C497.381 49.4773 499.124 50.5758 500.608 52.0455C502.108 53.5152 503.275 55.3636 504.108 57.5909C504.942 59.803 505.358 62.3939 505.358 65.3636V68.0227H475.881V62.0227H496.245C496.245 60.6288 495.942 59.3939 495.336 58.3182C494.73 57.2424 493.889 56.4015 492.813 55.7955C491.752 55.1742 490.518 54.8636 489.108 54.8636C487.639 54.8636 486.336 55.2045 485.199 55.8864C484.078 56.553 483.199 57.4545 482.563 58.5909C481.927 59.7121 481.601 60.9621 481.586 62.3409V68.0455C481.586 69.7727 481.904 71.2652 482.54 72.5227C483.192 73.7803 484.108 74.75 485.29 75.4318C486.472 76.1136 487.874 76.4545 489.495 76.4545C490.571 76.4545 491.555 76.303 492.449 76C493.343 75.697 494.108 75.2424 494.745 74.6364C495.381 74.0303 495.866 73.2879 496.199 72.4091L505.154 73C504.699 75.1515 503.768 77.0303 502.358 78.6364C500.965 80.2273 499.161 81.4697 496.949 82.3636C494.752 83.2424 492.215 83.6818 489.336 83.6818ZM509.309 83V48.0909H518.695V54.1818H519.059C519.695 52.0152 520.763 50.3788 522.263 49.2727C523.763 48.1515 525.49 47.5909 527.445 47.5909C527.93 47.5909 528.453 47.6212 529.013 47.6818C529.574 47.7424 530.066 47.8258 530.49 47.9318V56.5227C530.036 56.3864 529.407 56.2652 528.604 56.1591C527.801 56.053 527.066 56 526.4 56C524.975 56 523.703 56.3106 522.581 56.9318C521.475 57.5379 520.597 58.3864 519.945 59.4773C519.309 60.5682 518.99 61.8258 518.99 63.25V83H509.309Z" fill="#121826"/>
</svg>
