<svg width="120" height="120" viewBox="0 0 120 120" fill="none" xmlns="http://www.w3.org/2000/svg">
<path d="M58.8546 5.45455C48.9273 5.45455 40.9091 13.3753 40.9091 23.1818C40.9091 32.913 48.9273 40.8336 58.7782 40.9091C56.3346 40.8336 54.4255 38.8724 54.4255 36.4584C54.4255 34.0445 56.411 32.0078 58.931 32.0078C69.6218 32.0078 93.371 32.0078 103.833 32.0078C111.24 32.0078 117.273 26.0484 117.273 18.7312C117.273 11.4139 111.24 5.45454 103.833 5.45454L58.8546 5.45455Z" fill="#B91C1C"/>
<path d="M37.0363 40.9091C27.1091 40.9091 19.0909 48.8298 19.0909 58.6364C19.0909 68.3676 27.1091 76.2881 36.9599 76.3636C34.5163 76.2881 32.6072 74.3269 32.6072 71.9129C32.6072 69.499 34.5927 67.4623 37.1128 67.4623C47.8036 67.4623 71.5528 67.4623 82.0146 67.4623C89.4218 67.4623 95.4545 61.5029 95.4545 54.1858C95.4545 46.8685 89.4218 40.9091 82.0146 40.9091L37.0363 40.9091Z" fill="#B91C1C" fill-opacity="0.9"/>
<path d="M21.9546 76.3636C11.3182 76.3637 2.72729 84.8937 2.72729 95.4546C2.7273 105.934 11.3182 114.464 21.8727 114.545C19.2545 114.464 17.2091 112.352 17.2091 109.752C17.2091 107.153 19.3364 104.959 22.0365 104.959C33.4909 104.959 58.9365 104.959 70.1455 104.959C78.0818 104.959 84.5455 98.5416 84.5455 90.6616C84.5455 82.7814 78.0818 76.3636 70.1455 76.3636L21.9546 76.3636Z" fill="#B91C1C" fill-opacity="0.8"/>
</svg>
